<svg width="50" height="50" viewBox="0 0 50 50" fill="none" xmlns="http://www.w3.org/2000/svg">
<path d="M32.1396 6.55658C33.7137 6.55658 34.9898 5.28055 34.9898 3.70648C34.9898 2.13242 33.7137 0.856384 32.1396 0.856384C30.5656 0.856384 29.2896 2.13242 29.2896 3.70648C29.2896 5.28055 30.5656 6.55658 32.1396 6.55658Z" fill="#FFCF53"/>
<path d="M18.4399 12.9359C18.4399 13.9837 17.5904 14.8438 16.5426 14.8438H8.91581C8.11611 14.8438 7.46786 14.185 7.46786 13.3853C7.46786 12.5856 8.11611 11.9268 8.91581 11.9268C9.03642 11.9268 9.15302 11.9432 9.26503 11.9709C9.23893 11.8598 9.22556 11.7461 9.22519 11.6319C9.22519 10.8022 9.89785 10.1294 10.7277 10.1294C11.0427 10.1294 11.3348 10.2267 11.5763 10.3923C11.858 9.30616 12.8448 8.50421 14.019 8.50421C15.4128 8.50421 16.5427 9.63409 16.5427 11.0278C17.5905 11.0279 18.4399 11.888 18.4399 12.9359ZM41.514 8.51964C41.3332 8.51964 41.1577 8.542 40.9897 8.58351C41.0272 8.42003 41.0477 8.25011 41.0477 8.07531C41.0477 6.82462 40.0339 5.81066 38.7831 5.81066C38.3084 5.81066 37.8681 5.95695 37.5041 6.20656C37.0793 4.56974 35.5921 3.36115 33.8224 3.36115C31.7217 3.36115 30.0187 5.06407 30.0187 7.16476C28.4393 7.16476 27.159 8.44825 27.159 10.0276C27.159 11.607 28.4393 12.8905 30.0187 12.8905H41.5141C42.7193 12.8905 43.6964 11.9103 43.6964 10.705C43.6963 9.49992 42.7192 8.51964 41.514 8.51964Z" fill="#C2F4FF"/>
<path d="M44.5574 29.5858C44.5574 26.3471 41.9319 23.7305 38.6932 23.7305H23.446C20.2072 23.7305 17.5817 26.3511 17.5817 29.5898C17.5817 32.8286 20.2072 35.4492 23.446 35.4492H28.6571C25.8168 35.4492 25.001 37.5977 24.8779 40.332H21.6265C19.1572 40.332 17.1556 42.355 17.1556 44.8242C17.1556 47.2935 19.1572 49.3164 21.6265 49.3164H31.3607C32.6045 49.3164 33.7292 48.8147 34.5397 47.995C35.756 47.0741 37.3371 46.9727 40.2958 46.9727H43.6858C46.864 46.9727 49.4402 44.3886 49.4402 41.2104C49.4402 33.0389 44.5574 34.8436 44.5574 29.5858Z" fill="#76DFFF"/>
<path d="M28.7205 36.5104C28.7205 39.7492 27.9851 42.3747 24.7463 42.3747H11.8271C8.58829 42.3747 5.9628 39.7492 5.9628 36.5104C5.9628 33.2717 8.58829 30.6462 11.8271 30.6462H24.7463C27.9851 30.6462 28.7205 33.2718 28.7205 36.5104Z" fill="#F9E7C0"/>
<path d="M34.1973 31.9003C34.153 31.8537 34.103 31.8131 34.0483 31.7793L33.9539 31.7206C33.8354 31.6376 33.7139 31.5589 33.5895 31.4849C32.6477 30.8537 31.1004 29.6282 30.7901 28.0032C30.7281 25.5874 28.7522 23.6328 26.3221 23.6328H16.5878C14.8834 23.6328 13.4021 24.6094 12.6478 25.9766H5.49394C2.7165 25.9766 0.465034 28.2415 0.465034 31.0189C0.465034 38.3009 3.85283 34.8179 3.85283 43.3579C3.85283 46.5967 6.47831 49.2188 9.71708 49.2188H15.6468C15.8944 49.3164 16.1487 49.3164 16.4086 49.3164H26.1429C28.6121 49.3164 30.6138 47.309 30.6138 44.8398C30.6138 43.7091 32.5546 42.462 33.6883 41.4986C35.3508 40.4635 36.4579 38.622 36.4579 36.5194C36.4578 34.6397 35.5725 32.971 34.1973 31.9003Z" fill="#F9E7C0"/>
<path d="M18.961 37.8613C25.6484 37.8613 31.0696 36.4914 31.0696 34.8014C31.0696 33.1115 25.6484 31.7416 18.961 31.7416C12.2736 31.7416 6.85244 33.1115 6.85244 34.8014C6.85244 36.4914 12.2736 37.8613 18.961 37.8613Z" fill="#E5D4B1"/>
<path d="M31.1139 19.8584L7.7081 35.7581C7.30712 36.0304 6.74345 35.7997 6.67529 35.3198C4.80312 22.1342 19.5189 12.1346 31.0871 18.7369C31.5081 18.9771 31.5148 19.586 31.1139 19.8584Z" fill="#FF473E"/>
<path d="M24.4537 34.7657C24.4537 34.7657 24.4452 34.7243 24.4272 34.6983L14.049 19.8056C14.0019 19.7379 13.9087 19.7256 13.8411 19.7729C13.7734 19.8201 13.7568 19.8974 13.8039 19.9651L24.1226 34.7657H24.4537Z" fill="#597B91"/>
<path d="M14.101 19.4277C14.101 19.4277 14.2985 19.4788 14.6291 19.5788C14.9461 19.6883 15.4098 19.8372 15.9468 20.0293C16.4748 20.2278 17.0686 20.4746 17.688 20.751C18.2933 21.0371 18.9474 21.3365 19.5509 21.671C19.8536 21.8376 20.1742 21.9917 20.4575 22.166C20.7411 22.34 21.0327 22.5026 21.2924 22.6755C21.8096 23.023 22.2778 23.3574 22.6351 23.6746C23.3667 24.2974 23.7305 24.878 23.7305 24.878L15.1124 30.7348C15.1124 30.7348 14.7792 30.2782 14.4487 29.376C14.2751 28.9308 14.1238 28.3757 13.9772 27.7701C13.905 27.4665 13.8537 27.1367 13.7888 26.8103C13.7235 26.4841 13.6901 26.13 13.6389 25.7883C13.5344 25.1063 13.4805 24.3889 13.422 23.722C13.3776 23.0453 13.3518 22.4027 13.3489 21.8386C13.355 21.2683 13.3761 20.7818 13.3833 20.4465C13.4041 20.1018 13.4247 19.8988 13.4247 19.8988L14.101 19.4277Z" fill="#FD8C97"/>
<path d="M44.3896 43.5846C44.2178 43.9782 43.9349 44.3131 43.5756 44.5484C43.2162 44.7837 42.7961 44.9091 42.3666 44.9093C41.5365 44.9093 40.7813 44.4431 40.4044 43.7108C40.0275 44.4431 39.2724 44.9093 38.4422 44.9093C38.0127 44.9091 37.5926 44.7837 37.2333 44.5484C36.874 44.3131 36.591 43.9782 36.4191 43.5846C36.4129 43.5686 36.4131 43.5508 36.4197 43.5349C36.4263 43.5191 36.4387 43.5064 36.4545 43.4995C36.4702 43.4926 36.488 43.4921 36.5041 43.498C36.5202 43.504 36.5334 43.5159 36.5409 43.5313C36.7024 43.9013 36.9683 44.2161 37.306 44.4373C37.6437 44.6585 38.0386 44.7764 38.4423 44.7766C38.846 44.7764 39.2408 44.6585 39.5785 44.4373C39.9162 44.2162 40.1821 43.9013 40.3436 43.5313C40.3451 43.5281 40.3477 43.5259 40.3495 43.5229C40.352 43.5188 40.3543 43.5147 40.3577 43.5112C40.3617 43.5072 40.3664 43.5046 40.3712 43.5018C40.3735 43.5003 40.3753 43.4981 40.3779 43.4971C40.3782 43.4969 40.3786 43.497 40.3789 43.4969C40.3842 43.4946 40.3897 43.494 40.3954 43.4933C40.3984 43.4929 40.4015 43.4916 40.4045 43.4916C40.4075 43.4916 40.4105 43.4929 40.4136 43.4933C40.4192 43.494 40.4248 43.4947 40.43 43.4969C40.4304 43.4971 40.4307 43.497 40.4311 43.4971C40.4338 43.4982 40.4355 43.5005 40.438 43.502C40.4426 43.5048 40.4473 43.5073 40.4512 43.5112C40.4546 43.5147 40.4568 43.5189 40.4594 43.523C40.4612 43.526 40.4638 43.5281 40.4652 43.5313C40.6268 43.9013 40.8926 44.2161 41.2303 44.4373C41.5681 44.6585 41.9629 44.7764 42.3666 44.7766C42.7703 44.7764 43.1652 44.6585 43.5029 44.4373C43.8406 44.2162 44.1065 43.9013 44.268 43.5313C44.2714 43.5233 44.2765 43.5161 44.2827 43.51C44.289 43.5039 44.2964 43.4992 44.3046 43.496C44.3127 43.4928 44.3214 43.4913 44.3301 43.4914C44.3389 43.4916 44.3475 43.4935 44.3555 43.4971C44.389 43.5118 44.4043 43.551 44.3896 43.5846ZM46.0649 35.7227C46.0572 35.7193 46.0489 35.7175 46.0405 35.7173C46.0321 35.7171 46.0238 35.7186 46.016 35.7217C46.0081 35.7248 46.001 35.7293 45.9949 35.7352C45.9889 35.741 45.984 35.748 45.9807 35.7557C45.825 36.1121 45.5688 36.4154 45.2434 36.6285C44.918 36.8416 44.5375 36.9552 44.1485 36.9554C43.7596 36.9552 43.3791 36.8416 43.0537 36.6285C42.7283 36.4155 42.4721 36.1121 42.3165 35.7557C42.3151 35.7524 42.3126 35.7503 42.3107 35.7475C42.3083 35.7437 42.3062 35.7396 42.3029 35.7363C42.2994 35.7328 42.2952 35.7306 42.291 35.7279C42.2884 35.7263 42.2864 35.7239 42.2835 35.7227C42.2831 35.7225 42.2826 35.7226 42.2822 35.7224C42.2776 35.7204 42.2727 35.72 42.2677 35.7192C42.2644 35.7188 42.2611 35.7175 42.2578 35.7175C42.2545 35.7175 42.2512 35.7188 42.2479 35.7193C42.243 35.7201 42.2381 35.7205 42.2335 35.7225L42.2321 35.7228C42.229 35.7241 42.2269 35.7267 42.224 35.7284C42.2201 35.7309 42.2161 35.733 42.2128 35.7363C42.2094 35.7397 42.2072 35.7438 42.2047 35.7478C42.2029 35.7505 42.2005 35.7526 42.1991 35.7557C42.0435 36.1121 41.7873 36.4155 41.4619 36.6285C41.1365 36.8416 40.756 36.9552 40.3671 36.9554C40.3507 36.9563 40.3353 36.9634 40.3241 36.9753C40.3128 36.9872 40.3066 37.003 40.3066 37.0193C40.3066 37.0357 40.3128 37.0515 40.3241 37.0634C40.3353 37.0753 40.3507 37.0824 40.3671 37.0833C41.167 37.0833 41.8946 36.6341 42.2577 35.9286C42.4364 36.2762 42.7073 36.5678 43.0408 36.7715C43.3744 36.9752 43.7575 37.0831 44.1483 37.0833C44.5622 37.0831 44.967 36.9622 45.3132 36.7356C45.6594 36.5089 45.9321 36.1862 46.0978 35.8069C46.1012 35.7992 46.103 35.791 46.1032 35.7826C46.1034 35.7742 46.1019 35.7658 46.0989 35.758C46.0958 35.7501 46.0913 35.743 46.0854 35.7369C46.0796 35.7309 46.0726 35.726 46.0649 35.7227ZM42.3232 28.3321C41.9196 28.3319 41.5247 28.2141 41.187 27.9929C40.8493 27.7718 40.5834 27.457 40.4219 27.087C40.4205 27.0838 40.4179 27.0815 40.416 27.0787C40.4135 27.0746 40.4112 27.0704 40.4078 27.067C40.404 27.0632 40.3993 27.0606 40.3947 27.0578C40.3922 27.0562 40.3903 27.054 40.3876 27.0528C40.3872 27.0526 40.3868 27.0527 40.3865 27.0526C40.381 27.0503 40.3751 27.0496 40.369 27.0488C40.3664 27.0485 40.3639 27.0474 40.3612 27.0474C40.3571 27.0474 40.3531 27.0488 40.3489 27.0496C40.3444 27.0505 40.3399 27.0508 40.3357 27.0525L40.3343 27.0528C40.331 27.0543 40.3286 27.0569 40.3257 27.0589C40.3217 27.0614 40.3176 27.0636 40.3143 27.0669C40.3106 27.0705 40.3083 27.0748 40.3057 27.0791C40.3039 27.0819 40.3014 27.084 40.3001 27.0871C40.1385 27.457 39.8726 27.7718 39.5349 27.993C39.1972 28.2141 38.8024 28.332 38.3987 28.3322C37.9951 28.332 37.6002 28.2142 37.2625 27.993C36.9248 27.7719 36.6589 27.4571 36.4974 27.0871C36.496 27.0839 36.4934 27.0816 36.4915 27.0788C36.489 27.0747 36.4867 27.0705 36.4833 27.0671C36.4795 27.0633 36.4748 27.0607 36.4702 27.0579C36.4677 27.0563 36.4658 27.0541 36.4631 27.0529C36.4627 27.0527 36.4623 27.0528 36.462 27.0527C36.4564 27.0504 36.4504 27.0497 36.4443 27.0489C36.4418 27.0486 36.4393 27.0476 36.4367 27.0476C36.4327 27.0476 36.4287 27.049 36.4246 27.0498C36.42 27.0507 36.4154 27.051 36.4111 27.0527C36.4106 27.0529 36.4102 27.0528 36.4098 27.053C36.4065 27.0545 36.4043 27.057 36.4014 27.0589C36.3973 27.0614 36.3931 27.0637 36.3896 27.0671C36.3861 27.0706 36.3838 27.075 36.3811 27.0791C36.3794 27.0819 36.3769 27.0841 36.3755 27.0872C36.2139 27.4571 35.948 27.7719 35.6103 27.9931C35.2726 28.2142 34.8778 28.3321 34.4741 28.3323C34.4565 28.3323 34.4396 28.3393 34.4272 28.3518C34.4147 28.3642 34.4077 28.3811 34.4077 28.3987C34.4077 28.4163 34.4147 28.4332 34.4272 28.4457C34.4396 28.4581 34.4565 28.4651 34.4741 28.4651C35.3042 28.4651 36.0594 27.9989 36.4363 27.2668C36.8132 27.9989 37.5684 28.4651 38.3985 28.4651C39.2286 28.4651 39.9838 27.9989 40.3607 27.2668C40.7376 27.9989 41.4928 28.4651 42.3229 28.4651C42.3597 28.4651 42.3894 28.4354 42.3894 28.3987C42.3894 28.3621 42.36 28.3321 42.3232 28.3321Z" fill="#00B1FF"/>
</svg>
